<svg width="26" height="21" viewBox="0 0 26 21" fill="none" xmlns="http://www.w3.org/2000/svg">
<path d="M21.8897 0.517646V0.517925H21.8537H21.8178H21.7818H21.7459H21.71H21.674H21.6381H21.6021H21.5662H21.5303H21.4943H21.4584H21.4224H21.3865H21.3505H21.3146H21.2787H21.2427H21.2068H21.1708H21.1349H21.0989H21.063H21.027H20.9911H20.9551H20.9192H20.8833H20.8473H20.8114H20.7754H20.7395H20.7035H20.6676H20.6316H20.5957H20.5597H20.5238H20.4878H20.4519H20.4159H20.38H20.344H20.3081H20.2721H20.2362H20.2002H20.1643H20.1283H20.0923H20.0564H20.0204H19.9845H19.9485H19.9126H19.8766H19.8407H19.8047H19.7688H19.7328H19.6968H19.6609H19.6249H19.589H19.553H19.5171H19.4811H19.4452H19.4092H19.3732H19.3373H19.3013H19.2654H19.2294H19.1934H19.1575H19.1215H19.0856H19.0496H19.0136H18.9777H18.9417H18.9058H18.8698H18.8338H18.7979H18.7619H18.7259H18.69H18.654H18.6181H18.5821H18.5461H18.5102H18.4742H18.4382H18.4023H18.3663H18.3303H18.2944H18.2584H18.2225H18.1865H18.1505H18.1146H18.0786H18.0426H18.0067H17.9707H17.9347H17.8988H17.8628H17.8268H17.7909H17.7549H17.7189H17.6829H17.647H17.611H17.575H17.5391H17.5031H17.4671H17.4312H17.3952H17.3592H17.3233H17.2873H17.2513H17.2153H17.1794H17.1434H17.1074H17.0715H17.0355H16.9995H16.9635H16.9276H16.8916H16.8556H16.8196H16.7837H16.7477H16.7117H16.6758H16.6398H16.6038H16.5678H16.5319H16.4959H16.4599H16.4239H16.388H16.352H16.316H16.28H16.2441H16.2081H16.1721H16.1361H16.1002H16.0642H16.0282H15.9922H15.9562H15.9203H15.8843H15.8483H15.8123H15.7764H15.7404H15.7044H15.6684H15.6325H15.5965H15.5605H15.5245H15.4885H15.4526H15.4166H15.3806H15.3446H15.3086H15.2727H15.2367H15.2007H15.1647H15.1287H15.0928H15.0568H15.0208H14.9848H14.9488H14.9129H14.8769H14.8409H14.8049H14.7689H14.733H14.697H14.661H14.625H14.589H14.5531H14.5171H14.4811H14.4451H14.4091H14.3731H14.3372H14.3012H14.2652H14.2292H14.1932H14.1572H14.1213H14.0853H14.0493H14.0133H13.9773H13.9413H13.9054H13.8694H13.8334H13.7974H13.7614H13.7254H13.6895H13.6535H13.6175H13.5815H13.5455H13.5095H13.4736H13.4376H13.4016H13.3656H13.3296H13.2936H13.2576H13.2217H13.1857H13.1497H13.1137H13.0777H13.0417H13.0058H12.9698H12.9338H12.8978H12.8618H12.8258H12.7898H12.7539H12.7179H12.6819H12.6459H12.6099H12.5739H12.5379H12.5019H12.466H12.43H12.394H12.358H12.322H12.286H12.25H12.2141H12.1781H12.1421H12.1061H12.0701H12.0341H11.9981H11.9622H11.9262H11.8902H11.8542H11.8182H11.7822H11.7462H11.7102H11.6743H11.6383H11.6023H11.5663H11.5303H11.4943H11.4583H11.4223H11.3864H11.3504H11.3144H11.2784H11.2424H11.2064H11.1704H11.1344H11.0985H11.0625H11.0265H10.9905H10.9545H10.9185H10.8825H10.8465H10.8106H10.7746H10.7386H10.7026H10.6666H10.6306H10.5946H10.5587H10.5227H10.4867H10.4507H10.4147H10.3787H10.3427H10.3067H10.2708H10.2348H10.1988H10.1628H10.1268H10.0908H10.0548H10.0188H9.98286H9.94687H9.91088H9.87489H9.83891H9.80292H9.76693H9.73095H9.69496H9.65897H9.62299H9.587H9.55101H9.51503H9.47904H9.44305H9.40707H9.37108H9.33509H9.29911H9.26312H9.22713H9.19115H9.15516H9.11917H9.08319H9.0472H9.01122H8.97523H8.93924H8.90326H8.86727H8.83129H8.7953H8.75931H8.72333H8.68734H8.65136H8.61537H8.57939H8.5434H8.50742H8.47143H8.43545H8.39946H8.36348H8.32749H8.29151H8.25552H8.21954H8.18355H8.14757H8.11158H8.0756H8.03961H8.00363H7.96764H7.93166H7.89568H7.85969H7.82371H7.78773H7.75174H7.71576H7.67977H7.64379H7.60781H7.57182H7.53584H7.49986H7.46387H7.42789H7.39191H7.35593H7.31994H7.28396H7.24798H7.212H7.17601H7.14003H7.10405H7.06807H7.03209H6.9961H6.96012H6.92414H6.88816H6.85218H6.8162H6.78022H6.74424H6.70825H6.67227H6.63629H6.60031H6.56433H6.52835H6.49237H6.45639H6.42041H6.38443H6.34845H6.31247H6.27649H6.24051H6.20454H6.16856H6.13258H6.0966H6.06062H6.02464H5.98866H5.95269H5.91671H5.88073H5.84475H5.80877H5.7728H5.73682H5.70084H5.66487H5.62889H5.59291H5.55694H5.52096H5.48498H5.44901H5.41303H5.37705H5.34108H5.3051H5.26913H5.23315H5.19718H5.1612H5.12523H5.08925H5.05328H5.01731H4.98133H4.94536H4.90938H4.87341H4.83744H4.80146H4.76549H4.72952H4.69354H4.65757H4.6216H4.58563H4.54966H4.51368H4.47771H4.44174H4.40577H4.3698H4.33383H4.29786H4.26189H4.22592H4.18995H4.15398H4.11801H4.08204H4.04607H4.0101H3.97413H3.93816H3.90219H3.86622H3.83025H3.79429H3.75832H3.72235H3.68638H3.65042H3.61445H3.57848H3.54251H3.50655H3.47076H3.47058V0.617925C3.16315 0.61677 2.86844 0.799486 2.78676 1.04189L21.8897 0.517646ZM21.8897 0.517646L21.8971 0.518204C22.1869 0.539882 22.4642 0.705291 22.5759 0.945621L22.5759 0.945617L22.5764 0.946748L25.0469 6.4399C25.0469 6.43995 25.0469 6.44001 25.047 6.44006C25.0813 6.51581 25.0995 6.59713 25.0999 6.67915V6.67968V9.85406C25.1029 10.0446 24.9993 10.2174 24.8527 10.339C24.7051 10.4614 24.5049 10.5404 24.2941 10.5404C24.0832 10.5404 23.883 10.4614 23.7354 10.339C23.5888 10.2174 23.4852 10.0446 23.4882 9.85406V7.35699M21.8897 0.517646L23.4882 7.35699M23.4882 7.35699H2.51176V18.9918H23.4882V13.4187H14.8647L14.8647 14.762L14.8647 14.7625C14.8635 15.0234 14.6575 15.2264 14.4237 15.3318C14.1867 15.4386 13.884 15.4641 13.6382 15.3381L13.6376 15.3378L9.75528 13.3172C9.28483 13.0724 9.28483 12.4105 9.75528 12.1656L13.6365 10.1456C13.6367 10.1455 13.6369 10.1454 13.6371 10.1453C13.794 10.0613 13.9852 10.0255 14.1682 10.044L14.1682 10.044L14.1696 10.0442C14.3591 10.0662 14.5317 10.1509 14.6573 10.2705C14.7824 10.3895 14.8665 10.5491 14.8647 10.7214M23.4882 7.35699L0.899998 6.67991M14.8647 10.7214V10.7208H14.7647L14.8647 10.722C14.8647 10.7218 14.8647 10.7216 14.8647 10.7214ZM14.8647 10.7214V12.0641M14.8647 12.0641H24.2941C24.503 12.0641 24.7016 12.1416 24.8489 12.262C24.9954 12.3819 25.0999 12.5523 25.0999 12.7414V19.6691C25.0999 19.8582 24.9954 20.0287 24.8489 20.1485C24.7016 20.269 24.503 20.3464 24.2941 20.3465H1.70588C1.49695 20.3464 1.29835 20.269 1.15105 20.1485C1.0045 20.0287 0.900023 19.8582 0.899998 19.6692V6.67991M14.8647 12.0641V12.1641L14.7647 12.0641H14.8647ZM0.899998 6.67991V6.67968H0.999998L0.899998 6.67991ZM23.1246 6.00237L21.2625 1.87254H14.1588V6.00237H23.1246ZM12.547 1.87254H4.08395L2.75844 6.00237H12.547V1.87254ZM13.2529 13.5505V11.9323L11.7048 12.7414L13.2529 13.5505Z" fill="#9F9F9F" stroke="#9F9F9F" stroke-width="0.2"/>
</svg>
